<?xml version="1.0" encoding="UTF-8"?>
<svg xmlns="http://www.w3.org/2000/svg" width="110" height="32" viewBox="0 0 110 32" fill="none">
  <path d="M34.469 0.35743H38.6409L35.959 14.429H31.7874L32.8169 8.97662H29.8145L28.785 14.429H24.6124L26.6234 3.87465H23.1207L21.11 14.429H16.9384L18.9491 3.87465H9.4249L9.06082 5.80976H15.0691L14.4645 8.97662H8.45698L8.09257 10.9121H14.1018L13.4357 14.429H3.25757L5.9385 0.35743H31.4655L30.4112 5.80976H33.4143L34.469 0.35743Z" fill="black"></path>
  <path d="M17.7642 22.8975C17.8085 22.6548 17.8409 22.4232 17.8409 22.2394C17.8409 21.8237 17.6981 21.5698 17.2281 21.5698H16.5708L16.0668 24.2237H16.7677C17.3378 24.2237 17.611 23.7275 17.7642 22.8975ZM24.2758 27.6864C24.4941 27.6864 24.6699 27.6056 24.8228 27.444C25.1081 27.1446 25.2716 26.6014 25.6555 24.582C25.8523 23.5434 25.9943 22.6774 25.9943 22.1928C25.9943 21.777 25.8523 21.4773 25.4143 21.4773C25.1953 21.4773 25.0203 21.558 24.8671 21.7195C24.582 22.0193 24.4175 22.5625 24.0347 24.582C23.8375 25.6206 23.6951 26.4866 23.6951 26.9712C23.6951 27.3866 23.8375 27.6864 24.2758 27.6864ZM9.72004 22.9783C9.76363 22.7463 9.80723 22.4699 9.80723 22.2621C9.80723 21.8003 9.63251 21.5698 9.13939 21.5698H8.53695L8.00123 24.3852H8.63639C9.23782 24.3852 9.52292 24.0165 9.72004 22.9783ZM74.0848 27.6864C74.3038 27.6864 74.4789 27.6056 74.6321 27.444C74.9165 27.1446 75.081 26.6014 75.4641 24.582C75.6616 23.5434 75.804 22.6774 75.804 22.1928C75.804 21.777 75.6616 21.4773 75.223 21.4773C75.0043 21.4773 74.8289 21.558 74.6757 21.7195C74.3913 22.0193 74.2272 22.5625 73.8437 24.582C73.6472 25.6206 73.5042 26.4866 73.5042 26.9712C73.5042 27.3866 73.6472 27.6864 74.0848 27.6864ZM6.03005 28.6909H7.19103L7.79349 25.4824H8.58088C9.76363 25.4824 10.4976 24.9974 10.8804 22.9783C10.9465 22.6081 10.9679 22.3084 10.9679 22.0193C10.9679 21.5813 10.8695 21.1778 10.6065 20.9003C10.3225 20.6005 9.9605 20.4731 9.3475 20.4731H7.58472L6.03005 28.6909ZM14.064 28.6909H15.2239L15.87 25.2857H16.5494L16.8992 28.6909H18.0601L17.6436 25.0667C18.2788 24.7669 18.6511 24.3278 18.9252 22.8975C18.9906 22.5392 19.0229 22.228 19.0229 21.9619C19.0229 21.0733 18.5744 20.4731 17.4468 20.4731H15.6187L14.064 28.6909ZM22.5458 27.0064C22.5458 27.4907 22.6118 27.779 22.7977 28.1021C23.0382 28.5293 23.4656 28.7835 24.1771 28.7835C24.801 28.7835 25.2389 28.6101 25.6119 28.2177C26.1254 27.6982 26.3339 27.0872 26.8157 24.582C27.0344 23.4626 27.155 22.6656 27.155 22.1587C27.155 21.6739 27.0896 21.385 26.8924 21.0618C26.6516 20.6346 26.2242 20.3804 25.5237 20.3804C24.9001 20.3804 24.4614 20.5539 24.0787 20.9458C23.5753 21.4658 23.3669 22.0779 22.874 24.582C22.6663 25.701 22.5458 26.498 22.5458 27.0064ZM29.6598 28.0213C29.9224 28.4834 30.3825 28.7835 31.1273 28.7835C31.6743 28.7835 32.1449 28.6335 32.5833 28.2062C32.9003 27.895 33.1414 27.3751 33.295 26.5321L34.4444 20.4731H33.2838L32.1449 26.498C31.9916 27.2829 31.6521 27.6864 31.16 27.6864C30.9077 27.6864 30.7213 27.5833 30.5466 27.3292L29.6598 28.0213ZM37.3538 28.6909H40.4632L40.6716 27.5941H38.7229L39.1936 25.09H40.8692L41.0769 24.0047H39.4017L39.8611 21.5698H41.8102L42.0179 20.4731H38.9085L37.3538 28.6909ZM44.9934 26.9946C44.9934 27.4907 45.0591 27.7905 45.2563 28.1255C45.5084 28.5408 45.9242 28.7835 46.6029 28.7835C47.2602 28.7835 47.6539 28.6216 47.9938 28.3103C48.4423 27.895 48.6837 27.3751 48.8476 26.544H47.6757C47.5991 26.9019 47.4897 27.168 47.3147 27.3866C47.1724 27.5715 46.9861 27.6864 46.7122 27.6864C46.3186 27.6864 46.1548 27.4326 46.1548 26.9827C46.1548 26.4866 46.2859 25.6321 46.4827 24.582C46.8767 22.5507 47.0191 22.0545 47.3256 21.7195C47.4679 21.558 47.643 21.4773 47.8842 21.4773C48.3108 21.4773 48.4314 21.777 48.4314 22.1472C48.4314 22.2969 48.4314 22.4351 48.3987 22.6081H49.5593C49.592 22.401 49.592 22.2502 49.592 22.0779C49.592 21.6506 49.4719 21.2001 49.2638 20.9236C48.9899 20.5657 48.5411 20.3804 47.972 20.3804C47.3365 20.3804 46.8985 20.5657 46.5263 20.9577C46.0338 21.4658 45.8039 22.0886 45.3221 24.582C45.1136 25.701 44.9934 26.498 44.9934 26.9946ZM54.8446 21.5698L53.4976 28.6909H54.6583L56.0049 21.5698H57.2422L57.4506 20.4731H53.8154L53.607 21.5698H54.8446ZM63.8174 28.6909H64.9788L65.6688 25.0548H67.1243L66.4351 28.6909H67.5954L69.1501 20.4731H67.9897L67.3212 23.9706H65.8762L66.5335 20.4731H65.3722L63.8174 28.6909ZM72.3547 27.0064C72.3547 27.4907 72.4201 27.779 72.6068 28.1021C72.8476 28.5293 73.2743 28.7835 73.986 28.7835C74.61 28.7835 75.0486 28.6101 75.4205 28.2177C75.9348 27.6982 76.1435 27.0872 76.6248 24.582C76.8441 23.4626 76.9643 22.6656 76.9643 22.1587C76.9643 21.6739 76.8986 21.385 76.7014 21.0618C76.4602 20.6346 76.0336 20.3804 75.333 20.3804C74.7087 20.3804 74.2711 20.5539 73.8879 20.9458C73.3843 21.4658 73.1762 22.0779 72.6834 24.582C72.4756 25.701 72.3547 26.498 72.3547 27.0064ZM80.4541 27.168C80.4541 27.6289 80.5743 28.0099 80.8263 28.287C81.1107 28.6101 81.5159 28.7835 82.0524 28.7835C82.6987 28.7835 83.1361 28.6216 83.4981 28.2752C83.892 27.9065 84.1219 27.444 84.2534 26.763L85.4358 20.4731H84.2756L83.0927 26.7522C82.9828 27.3518 82.633 27.6864 82.2056 27.6864C81.8224 27.6864 81.6147 27.4559 81.6147 27.0402C81.6147 26.9253 81.6256 26.7978 81.647 26.6822L82.8299 20.4731H81.6692L80.5086 26.5788C80.4755 26.7289 80.4541 26.9594 80.4541 27.168ZM88.4218 27.2829C88.4218 27.6982 88.5535 28.0447 88.7723 28.287C89.0565 28.6101 89.4401 28.7717 90.108 28.7717C90.8307 28.7717 91.2797 28.5983 91.6407 28.2296C91.9807 27.8831 92.1664 27.4674 92.3416 26.5321C92.4184 26.1283 92.4515 25.7595 92.4515 25.4483C92.4515 24.7902 92.1995 24.4204 91.4436 24.0399L90.8203 23.7275C90.5456 23.5893 90.3931 23.4044 90.3931 23.0698C90.3931 22.8975 90.4148 22.6889 90.4471 22.5159C90.5125 22.1587 90.6119 21.8696 90.7985 21.6847C90.9406 21.5347 91.1045 21.4773 91.312 21.4773C91.5099 21.4773 91.6407 21.558 91.706 21.6506C91.7941 21.7655 91.8272 21.893 91.8272 22.1001C91.8272 22.2621 91.8159 22.4351 91.761 22.7007H92.9223C92.9772 22.3658 92.999 22.1001 92.999 21.8696C92.999 21.4309 92.8673 21.0618 92.6912 20.8769C92.3852 20.5539 92.0461 20.3804 91.3887 20.3804C90.7322 20.3804 90.3163 20.5887 89.9763 20.9458C89.6267 21.3042 89.4183 21.8237 89.2867 22.5159C89.2213 22.839 89.1995 23.1161 89.1995 23.4159C89.1995 24.0047 89.4079 24.3971 90.0094 24.7094L90.7322 25.0781C91.0931 25.2515 91.2579 25.4705 91.2579 25.7937C91.2579 26.0019 91.2353 26.2561 91.1812 26.5207C91.0713 27.052 91.006 27.2484 90.7985 27.4559C90.645 27.6056 90.4471 27.6864 90.2065 27.6864C89.9876 27.6864 89.8342 27.6056 89.7357 27.4792C89.6485 27.3751 89.604 27.2254 89.604 27.0287C89.604 26.8671 89.6267 26.6937 89.6703 26.4517H88.5099C88.4549 26.7863 88.4218 27.0287 88.4218 27.2829ZM96.1926 28.6909H99.3016L99.5108 27.5941H97.5614L98.0322 25.09H99.707L99.9162 24.0047H98.2405L98.7 21.5698H100.649L100.858 20.4731H97.7471L96.1926 28.6909ZM2.68366 17.4983H106.756L104.05 31.5706H0L2.68366 17.4983ZM103.989 3.33082H100.353L100.146 4.42764H101.383L100.036 11.5487H101.196L102.543 4.42764H103.78L103.989 3.33082ZM96.2405 3.33082H95.0801L94.1812 8.30606L93.3931 3.33082H92.4192L90.8647 11.5487H92.0251L92.9667 6.57452L93.7549 11.5487H94.6852L96.2405 3.33082ZM88.1411 3.33082H85.0313L83.4766 11.5487H86.586L86.7937 10.4523H84.845L85.3157 7.9478H86.9912L87.1995 6.86283H85.5234L85.9832 4.42764H87.9318L88.1411 3.33082ZM80.2722 5.1198C80.2722 4.65852 80.1843 4.31203 80.0089 4.01222C79.7355 3.57318 79.3847 3.33082 78.6842 3.33082H76.856L75.3013 11.5487H77.2392C77.907 11.5487 78.3776 11.3638 78.7829 10.9484C79.2971 10.4297 79.4947 9.67925 79.9211 7.42825C80.1298 6.343 80.2722 5.50113 80.2722 5.1198ZM72.4035 3.33082H71.2418L70.0604 9.61004C69.9503 10.2096 69.6003 10.5446 69.1728 10.5446C68.7897 10.5446 68.5823 10.3141 68.5823 9.89827C68.5823 9.78338 68.5922 9.656 68.6147 9.54001L69.7971 3.33082H68.6368L67.4761 9.43698C67.4428 9.5867 67.4216 9.81748 67.4216 10.0257C67.4216 10.4871 67.5415 10.8676 67.7939 11.1452C68.078 11.4679 68.4832 11.6413 69.0196 11.6413C69.666 11.6413 70.1036 11.4797 70.4646 11.1333C70.8586 10.7642 71.0889 10.3022 71.2207 9.62116L72.4035 3.33082ZM64.5881 3.33082H60.9537L60.7449 4.42764H61.9829L60.6359 11.5487H61.7966L63.1431 4.42764H64.3805L64.5881 3.33082ZM56.5985 4.72745C56.5985 4.28868 56.4667 3.91967 56.292 3.73475C55.9855 3.41161 55.646 3.23854 54.9887 3.23854C54.3321 3.23854 53.9155 3.44681 53.5767 3.80405C53.2259 4.16194 53.0178 4.68177 52.8866 5.37365C52.8213 5.69671 52.7995 5.97427 52.7995 6.27407C52.7995 6.86283 53.0072 7.25491 53.6097 7.56721L54.3321 7.93631C54.693 8.10928 54.8575 8.3283 54.8575 8.65145C54.8575 8.85971 54.835 9.11383 54.7806 9.37844C54.6716 9.90976 54.6051 10.1065 54.3975 10.3141C54.2442 10.4638 54.0477 10.5446 53.8065 10.5446C53.5876 10.5446 53.434 10.4638 53.3356 10.3374C53.2477 10.2333 53.2037 10.0832 53.2037 9.88641C53.2037 9.72493 53.2259 9.55187 53.2698 9.30951H52.1095C52.055 9.64414 52.022 9.88641 52.022 10.1406C52.022 10.556 52.1531 10.9024 52.3721 11.1452C52.6565 11.4679 53.0399 11.6294 53.7078 11.6294C54.4308 11.6294 54.8797 11.4564 55.2404 11.0877C55.5802 10.7409 55.7658 10.3255 55.9412 9.39029C56.0179 8.98636 56.0508 8.61735 56.0508 8.30606C56.0508 7.648 55.7989 7.27816 55.0439 6.89766L54.4196 6.58527C54.1458 6.44713 53.9921 6.26221 53.9921 5.92758C53.9921 5.75525 54.0146 5.54708 54.0477 5.37365C54.1134 5.01641 54.2112 4.72745 54.3975 4.54253C54.5398 4.39281 54.7039 4.33537 54.912 4.33537C55.1092 4.33537 55.2404 4.41616 55.306 4.50843C55.3936 4.62332 55.4269 4.7507 55.4269 4.95823C55.4269 5.1198 55.4157 5.29286 55.3612 5.55857H56.5219C56.5764 5.22393 56.5985 4.95823 56.5985 4.72745ZM110 0.356043L107.293 14.4287H45.8983L48.5819 0.356043H110ZM78.4985 4.42764H77.8079L76.6697 10.4523H77.327C77.6546 10.4523 77.8634 10.3255 78.0167 10.1288C78.301 9.76004 78.4873 8.87147 78.7608 7.42825C78.9583 6.44713 79.1115 5.59368 79.1115 5.1198C79.1115 4.91228 79.0561 4.73921 78.9583 4.62332C78.8596 4.49694 78.6954 4.42764 78.4985 4.42764Z" fill="black"></path>
</svg>
